<svg width="60" height="61" viewBox="0 0 60 61" fill="none" xmlns="http://www.w3.org/2000/svg">
<path d="M33.2812 41.9062C31.9271 43.4688 30.4062 44.7292 28.7188 45.6875C27.0521 46.625 25.375 47.0938 23.6875 47.0938C21.8333 47.0938 20.0312 46.5521 18.2812 45.4688C16.5312 44.3854 15.1042 42.7188 14 40.4688C12.9167 38.2188 12.375 35.75 12.375 33.0625C12.375 29.75 13.2188 26.4375 14.9062 23.125C16.6146 19.7917 18.7292 17.2917 21.25 15.625C23.7708 13.9583 26.2188 13.125 28.5938 13.125C30.4062 13.125 32.1354 13.6042 33.7812 14.5625C35.4271 15.5 36.8438 16.9375 38.0312 18.875L39.0938 14.0312H44.6875L40.1875 35C39.5625 37.9167 39.25 39.5312 39.25 39.8438C39.25 40.4062 39.4583 40.8958 39.875 41.3125C40.3125 41.7083 40.8333 41.9062 41.4375 41.9062C42.5417 41.9062 43.9896 41.2708 45.7812 40C48.1562 38.3333 50.0312 36.1042 51.4062 33.3125C52.8021 30.5 53.5 27.6042 53.5 24.625C53.5 21.1458 52.6042 17.8958 50.8125 14.875C49.0417 11.8542 46.3854 9.4375 42.8438 7.625C39.3229 5.8125 35.4271 4.90625 31.1562 4.90625C26.2812 4.90625 21.8229 6.05208 17.7812 8.34375C13.7604 10.6146 10.6354 13.8854 8.40625 18.1562C6.19792 22.4062 5.09375 26.9688 5.09375 31.8438C5.09375 36.9479 6.19792 41.3438 8.40625 45.0312C10.6354 48.7188 13.8438 51.4375 18.0312 53.1875C22.2396 54.9583 26.8958 55.8438 32 55.8438C37.4583 55.8438 42.0312 54.9271 45.7188 53.0938C49.4062 51.2604 52.1667 49.0312 54 46.4062H59.6562C58.5938 48.5938 56.7708 50.8229 54.1875 53.0938C51.6042 55.3646 48.5312 57.1562 44.9688 58.4688C41.4062 59.8021 37.1146 60.4688 32.0938 60.4688C27.4688 60.4688 23.1979 59.875 19.2812 58.6875C15.3854 57.5 12.0625 55.7083 9.3125 53.3125C6.5625 50.9375 4.48958 48.1979 3.09375 45.0938C1.34375 41.1562 0.46875 36.9062 0.46875 32.3438C0.46875 27.2604 1.51042 22.4167 3.59375 17.8125C6.13542 12.1667 9.73958 7.84375 14.4062 4.84375C19.0938 1.84375 24.7708 0.34375 31.4375 0.34375C36.6042 0.34375 41.2396 1.40625 45.3438 3.53125C49.4688 5.63542 52.7188 8.78125 55.0938 12.9688C57.1146 16.5729 58.125 20.4896 58.125 24.7188C58.125 30.7604 56 36.125 51.75 40.8125C47.9583 45.0208 43.8125 47.125 39.3125 47.125C37.875 47.125 36.7083 46.9062 35.8125 46.4688C34.9375 46.0312 34.2917 45.4062 33.875 44.5938C33.6042 44.0729 33.4062 43.1771 33.2812 41.9062ZM18.1562 33.4375C18.1562 36.2917 18.8333 38.5104 20.1875 40.0938C21.5417 41.6771 23.0938 42.4688 24.8438 42.4688C26.0104 42.4688 27.2396 42.125 28.5312 41.4375C29.8229 40.7292 31.0521 39.6875 32.2188 38.3125C33.4062 36.9375 34.375 35.1979 35.125 33.0938C35.875 30.9688 36.25 28.8438 36.25 26.7188C36.25 23.8854 35.5417 21.6875 34.125 20.125C32.7292 18.5625 31.0208 17.7812 29 17.7812C27.6667 17.7812 26.4062 18.125 25.2188 18.8125C24.0521 19.4792 22.9167 20.5625 21.8125 22.0625C20.7083 23.5625 19.8229 25.3854 19.1562 27.5312C18.4896 29.6771 18.1562 31.6458 18.1562 33.4375Z" fill="white"/>
</svg>
